HIERARCHY
ROOT Hips
{
	OFFSET 0.000000 0.000000 0.000000
	CHANNELS 6 Xposition Yposition Zposition Zrotation Yrotation Xrotation 
	JOINT LHipJoint
	{
		OFFSET 0.000000 0.000000 0.000000
		CHANNELS 3 Zrotation Yrotation Xrotation
		JOINT LeftUpLeg
		{
			OFFSET 1.363060 -1.794630 0.839290
			CHANNELS 3 Zrotation Yrotation Xrotation
			JOINT LeftLeg
			{
				OFFSET 2.448110 -6.726130 0.000000
				CHANNELS 3 Zrotation Yrotation Xrotation
				JOINT LeftFoot
				{
					OFFSET 2.562200 -7.039590 0.000000
					CHANNELS 3 Zrotation Yrotation Xrotation
					JOINT LeftToeBase
					{
						OFFSET 0.157640 -0.433110 2.322550
						CHANNELS 3 Zrotation Yrotation Xrotation
						End Site
						{
							OFFSET 0.000000 0.000000 0.000000
						}
					}
				}
			}
		}
	}
	JOINT RHipJoint
	{
		OFFSET 0.000000 0.000000 0.000000
		CHANNELS 3 Zrotation Yrotation Xrotation
		JOINT RightUpLeg
		{
			OFFSET -1.305520 -1.794630 0.839290
			CHANNELS 3 Zrotation Yrotation Xrotation
			JOINT RightLeg
			{
				OFFSET -2.542530 -6.985550 0.000000
				CHANNELS 3 Zrotation Yrotation Xrotation
				JOINT RightFoot
				{
					OFFSET -2.568260 -7.056230 0.000000
					CHANNELS 3 Zrotation Yrotation Xrotation
					JOINT RightToeBase
					{
						OFFSET -0.164730 -0.452590 2.363150
						CHANNELS 3 Zrotation Yrotation Xrotation
						End Site
						{
							OFFSET 0.000000 0.000000 0.000000
						}
					}
				}
			}
		}
	}
	JOINT LowerBack
	{
		OFFSET 0.000000 0.000000 0.000000
		CHANNELS 3 Zrotation Yrotation Xrotation
		JOINT Spine
		{
			OFFSET 0.028270 2.035590 -0.193380
			CHANNELS 3 Zrotation Yrotation Xrotation
			JOINT Spine1
			{
				OFFSET 0.056720 2.048850 -0.042750
				CHANNELS 3 Zrotation Yrotation Xrotation
				JOINT Neck
				{
					OFFSET 0.000000 0.000000 0.000000
					CHANNELS 3 Zrotation Yrotation Xrotation
					JOINT Neck1
					{
						OFFSET -0.054170 1.746240 0.172020
						CHANNELS 3 Zrotation Yrotation Xrotation
						JOINT Head
						{
							OFFSET 0.104070 1.761360 -0.123970
							CHANNELS 3 Zrotation Yrotation Xrotation
							End Site
							{
								OFFSET 0.000000 0.000000 0.000000
							}
						}
					}
				}
				JOINT LeftShoulder
				{
					OFFSET 0.000000 0.000000 0.000000
					CHANNELS 3 Zrotation Yrotation Xrotation
					JOINT LeftArm
					{
						OFFSET 3.362410 1.200890 -0.311210
						CHANNELS 3 Zrotation Yrotation Xrotation
						JOINT LeftForeArm
						{
							OFFSET 4.983000 -0.000000 -0.000000
							CHANNELS 3 Zrotation Yrotation Xrotation
							JOINT LeftHand
							{
								OFFSET 3.483560 -0.000000 -0.000000
								CHANNELS 3 Zrotation Yrotation Xrotation
								JOINT LeftFingerBase
								{
									OFFSET 0.000000 0.000000 0.000000
									CHANNELS 3 Zrotation Yrotation Xrotation
									JOINT LeftHandIndex1
									{
										OFFSET 0.715260 -0.000000 -0.000000
										CHANNELS 3 Zrotation Yrotation Xrotation
										End Site
										{
											OFFSET 0.000000 0.000000 0.000000
										}
									}
								}
								JOINT LThumb
								{
									OFFSET 0.000000 0.000000 0.000000
									CHANNELS 3 Zrotation Yrotation Xrotation
									End Site
									{
										OFFSET 0.000000 0.000000 0.000000
									}
								}
							}
						}
					}
				}
				JOINT RightShoulder
				{
					OFFSET 0.000000 0.000000 0.000000
					CHANNELS 3 Zrotation Yrotation Xrotation
					JOINT RightArm
					{
						OFFSET -3.136600 1.374050 -0.404650
						CHANNELS 3 Zrotation Yrotation Xrotation
						JOINT RightForeArm
						{
							OFFSET -5.241900 -0.000000 -0.000000
							CHANNELS 3 Zrotation Yrotation Xrotation
							JOINT RightHand
							{
								OFFSET -3.444170 -0.000000 -0.000000
								CHANNELS 3 Zrotation Yrotation Xrotation
								JOINT RightFingerBase
								{
									OFFSET 0.000000 0.000000 0.000000
									CHANNELS 3 Zrotation Yrotation Xrotation
									JOINT RightHandIndex1
									{
										OFFSET -0.622530 -0.000000 -0.000000
										CHANNELS 3 Zrotation Yrotation Xrotation
										End Site
										{
											OFFSET 0.000000 0.000000 0.000000
										}
									}
								}
								JOINT RThumb
								{
									OFFSET 0.000000 0.000000 0.000000
									CHANNELS 3 Zrotation Yrotation Xrotation
									End Site
									{
										OFFSET 0.000000 0.000000 0.000000
									}
								}
							}
						}
					}
				}
			}
		}
	}
}
MOTION
Frames: 9
Frame Time: 0.008333
5.011207 16.118109 -7.226361 5.437516 5.934630 9.184259 2.467565 -3.162199 -3.370611 -28.949324 26.147361 -28.523024 9.744999 19.852036 61.286018 1.138271 4.205697 -26.329772 1.135400 -6.767300 -19.027900 -5.640432 1.857224 -2.985510 21.728160 -2.536397 -50.843785 -11.655663 -20.113869 66.651771 -0.660502 -6.337999 -21.244388 -0.402000 -4.070500 11.275200 1.308223 -3.019837 38.839843 1.723062 -1.974142 1.608673 7.001848 -1.258259 -4.675675 -8.254922 -9.630429 -22.494544 10.020927 -9.895714 8.938168 2.563200 -3.797600 13.700600 -9.024797 -2.280675 -0.851358 -63.654820 -18.132764 39.884486 44.273149 -50.184138 -22.781257 -0.061203 0.397993 -28.947118 31.436562 -14.877576 -9.138600 -7.125000 0.000000 0.000000 2.445200 12.190800 -1.875500 11.132665 5.213802 0.702570 60.389418 14.243857 12.218583 -36.146695 43.211573 -16.546997 1.306343 0.318009 -25.926452 -19.568914 -27.052555 9.666300 7.125000 0.000000 0.000000 10.231900 -57.793200 -3.226500 
5.054984 16.119676 -7.164509 5.602830 4.773294 9.174153 2.470110 -3.157600 -3.344617 -29.314985 26.363871 -28.032311 9.686200 19.849364 61.114974 1.171400 4.083374 -26.402045 1.106700 -6.684000 -18.782600 -5.616932 1.847333 -2.995097 22.495615 -3.371070 -51.221865 -11.655304 -20.085644 66.620426 -0.697134 -7.052785 -22.344451 -0.594000 -4.933900 13.720300 1.228406 -2.929296 38.720640 1.714261 -1.912932 1.530501 6.987744 -1.214005 -4.790654 -8.134875 -9.257322 -22.661224 9.527142 -9.437288 9.200760 2.370800 -3.644000 13.804900 -9.013845 -2.343513 -0.867662 -63.232278 -17.871333 40.332808 44.334242 -50.216287 -22.806748 -0.059160 0.390512 -29.245556 31.330437 -14.991686 -9.160300 -7.125000 0.000000 0.000000 2.362200 12.090100 -1.816600 11.172686 5.198810 0.659301 60.241369 13.926347 11.980312 -36.061855 43.165062 -16.523397 1.302150 0.345147 -26.266534 -19.514296 -27.388267 9.758400 7.125000 0.000000 0.000000 10.464400 -58.137600 -3.387800 
5.102522 16.112258 -7.098061 5.433042 3.667077 9.048100 2.475384 -3.156708 -3.324063 -29.295737 26.543326 -27.640398 9.733713 19.873248 61.268633 1.121767 4.277544 -26.336395 1.101900 -6.670000 -18.741400 -5.620227 1.838890 -3.021115 23.479258 -4.328393 -51.438735 -11.644230 -20.055062 66.545136 -0.764011 -7.131253 -23.155597 -0.825300 -5.796000 16.193800 1.563655 -2.939725 38.656303 1.725297 -1.816943 1.497911 6.785286 -1.159504 -4.813446 -7.904406 -8.770772 -23.030272 8.957887 -8.846619 9.477325 2.137800 -3.431800 13.941600 -8.970325 -2.404260 -0.874236 -63.410828 -17.817497 40.550349 44.001809 -50.078209 -22.548833 -0.054016 0.402361 -29.101069 31.542734 -15.337768 -9.438000 -7.125000 0.000000 0.000000 2.452400 11.645800 -1.908700 11.206518 5.162981 0.616711 60.231171 13.761945 11.773070 -35.981295 43.115471 -16.490240 1.303968 0.344597 -26.488691 -19.852221 -27.413212 9.933000 7.125000 0.000000 0.000000 10.105600 -58.226300 -3.291700 
5.150268 16.155721 -7.025240 5.417710 2.574811 8.893745 2.503122 -3.154071 -3.317703 -29.342358 26.481990 -27.257373 9.759486 19.896045 61.373758 0.923259 4.908739 -25.838865 1.143600 -6.790700 -19.096700 -5.680723 1.839943 -3.048880 23.822086 -4.201704 -50.728774 -11.498447 -20.043656 66.086683 -0.812341 -7.572300 -24.067852 -0.820200 -5.778500 16.143200 1.816364 -3.061322 38.552767 1.707466 -1.902112 1.517096 6.591627 -1.194515 -4.670252 -7.842252 -8.158191 -23.408033 8.541866 -8.003568 9.644426 2.055800 -3.120900 14.016100 -8.915410 -2.431360 -0.868226 -64.292520 -17.906565 40.308790 43.244400 -49.753198 -21.995368 -0.050885 0.425848 -28.275211 31.905187 -15.505317 -9.680900 -7.125000 0.000000 0.000000 2.661000 11.358800 -2.087100 11.219486 5.117454 0.586603 60.191570 13.707832 11.906354 -36.035318 43.155043 -16.521737 1.302852 0.348345 -26.415572 -19.707961 -27.431302 9.869400 7.125000 0.000000 0.000000 10.273900 -58.220200 -3.345700 
5.192060 16.110064 -6.951896 5.749074 1.569934 8.426107 2.507989 -3.154295 -3.305462 -29.442488 26.415204 -26.726316 9.984098 20.026252 62.099267 0.737146 5.434335 -25.237676 1.251300 -7.091800 -19.987800 -5.660612 1.857539 -3.101389 23.658567 -5.071035 -50.242672 -11.501859 -19.975856 66.048024 -0.906331 -6.585066 -24.115381 -0.660100 -5.196300 14.469400 1.840494 -3.161602 38.699490 1.636203 -2.048764 1.553266 6.402207 -1.254350 -4.591386 -8.002718 -7.735510 -23.453109 8.261921 -7.365113 9.692078 2.064800 -2.914200 13.993600 -8.944435 -2.468706 -0.871178 -63.637464 -17.586092 40.412498 43.366177 -49.806542 -22.093328 -0.066459 0.403624 -28.697631 31.840607 -15.168999 -9.458800 -7.125000 0.000000 0.000000 2.677600 11.774000 -2.077200 11.240585 5.092180 0.569228 60.056810 13.440176 12.007062 -36.096772 43.215766 -16.577021 1.296585 0.373115 -26.259998 -19.156053 -27.728811 9.701900 7.125000 0.000000 0.000000 11.040100 -58.431700 -3.655400 
5.232806 16.093765 -6.868208 6.008576 0.574930 7.683365 2.533795 -3.155296 -3.282173 -29.353608 26.617055 -25.978636 10.313238 20.181332 63.118269 0.520815 5.944609 -24.339023 1.367000 -7.399800 -20.905400 -5.696580 1.892614 -3.187844 23.198300 -5.450646 -48.857982 -11.436451 -19.919332 65.803650 -1.054549 -5.165208 -24.428414 -0.618100 -5.031500 13.998400 1.940307 -3.196838 39.035989 1.545485 -2.073440 1.610495 6.068882 -1.246630 -4.530395 -7.943029 -7.279546 -23.528452 7.764455 -6.783104 9.912618 1.906900 -2.730400 14.057500 -8.945343 -2.519660 -0.867832 -63.434180 -17.541846 40.664469 42.817837 -49.544815 -21.663826 -0.050451 0.398566 -28.439270 31.384419 -15.448643 -9.441600 -7.125000 0.000000 0.000000 2.336900 11.552500 -1.823100 11.262502 5.053473 0.540984 60.040898 13.114446 11.937562 -36.032415 43.198315 -16.551728 1.292962 0.381810 -26.173457 -18.939128 -27.841334 9.632800 7.125000 0.000000 0.000000 11.342500 -58.509800 -3.778500 
5.247747 16.096064 -6.781596 6.025078 -0.311493 7.115467 2.557588 -3.153592 -3.268110 -28.760662 26.617254 -25.578126 10.835121 20.378678 64.677444 0.329298 6.072072 -22.886631 1.231000 -7.036400 -19.823400 -5.772513 1.922693 -3.265593 23.023967 -5.336012 -47.406470 -11.339988 -19.904156 65.486065 -1.202863 -4.068727 -25.065628 -0.606100 -4.983200 13.860800 2.096576 -3.145302 39.205084 1.505612 -1.952520 1.672675 5.792677 -1.179517 -4.397351 -7.657370 -6.629211 -23.799028 7.053966 -6.015401 10.304263 1.617300 -2.470600 14.230800 -8.919498 -2.599908 -0.864446 -63.106009 -17.724756 41.031641 42.009651 -49.142565 -21.043760 -0.035481 0.404554 -28.182290 31.258108 -16.028062 -9.717600 -7.125000 0.000000 0.000000 2.172100 10.917300 -1.722700 11.310971 4.991077 0.501655 60.132885 12.912249 11.568108 -35.902395 43.123101 -16.486355 1.292436 0.371659 -26.071359 -19.098737 -27.780381 9.689600 7.125000 0.000000 0.000000 11.137200 -58.475800 -3.699900 
5.250045 16.098885 -6.699162 5.846508 -0.961197 6.752793 2.571902 -3.149012 -3.270209 -27.802332 26.151386 -25.443436 11.519449 20.607370 66.698023 0.155543 6.000184 -21.081099 0.913500 -6.090100 -17.046000 -5.854797 1.934245 -3.327655 23.363616 -5.329012 -46.293161 -11.193978 -19.883889 65.016347 -1.299123 -3.767126 -25.749405 -0.552000 -4.759500 13.223900 2.557722 -3.157297 39.176856 1.476926 -1.809192 1.715780 5.421541 -1.099315 -4.275382 -7.642015 -6.152617 -23.883264 6.603994 -5.380852 10.581125 1.503600 -2.268600 14.344000 -8.902037 -2.651210 -0.859877 -62.905536 -18.062567 41.385844 40.998800 -48.619336 -20.269988 -0.031987 0.410623 -27.765430 31.224740 -16.262931 -9.839200 -7.125000 0.000000 0.000000 2.117700 10.650000 -1.691100 11.337025 4.951493 0.479166 60.243269 12.742235 10.996560 -35.642021 42.960860 -16.339958 1.291203 0.363578 -25.900025 -19.092589 -27.738969 9.670600 7.125000 0.000000 0.000000 11.124600 -58.430100 -3.683400 
5.248687 16.100766 -6.625296 5.463859 -1.412256 6.582508 2.574159 -3.140596 -3.287480 -26.618634 25.203427 -25.664654 12.341423 20.848270 69.108994 -0.115604 6.355909 -19.008929 0.741900 -5.502400 -15.347200 -5.936631 1.927232 -3.367321 24.191233 -5.504183 -45.546599 -11.014992 -19.857029 64.442273 -1.368140 -4.136220 -26.597530 -0.508800 -4.572200 12.692400 3.257344 -3.289487 39.066490 1.464217 -1.735511 1.711143 5.006846 -1.046723 -4.246069 -7.720017 -5.725526 -23.880023 6.311697 -4.776928 10.790496 1.488800 -2.072600 14.422400 -8.885474 -2.690510 -0.857464 -62.859923 -18.347722 41.506931 40.049931 -48.105069 -19.554134 -0.019652 0.413255 -27.252363 30.832414 -16.493833 -9.812900 -7.125000 0.000000 0.000000 1.826800 10.464400 -1.465400 11.349248 4.929016 0.459226 60.342965 12.555803 10.719132 -35.301087 42.752128 -16.118523 1.291686 0.353065 -25.922452 -19.119953 -27.502364 9.603600 7.125000 0.000000 0.000000 10.968000 -58.189600 -3.567100 
